<svg width="16" height="16" viewBox="0 0 16 16" fill="none" xmlns="http://www.w3.org/2000/svg">
<path d="M11.3523 0H4.64775C2.08497 0 0 2.08497 0 4.64775V11.3523C0 13.915 2.08497 16 4.64775 16H11.3523C13.915 16 16 13.915 16 11.3523V4.64775C16 2.08497 13.915 0 11.3523 0ZM14.75 11.3523C14.75 13.2258 13.2258 14.75 11.3523 14.75H4.64775C2.77422 14.75 1.25 13.2258 1.25 11.3523V4.64775C1.25 2.77422 2.77422 1.25 4.64775 1.25H11.3523C13.2258 1.25 14.75 2.77422 14.75 4.64775V11.3523Z" fill="#333333"/>
<path d="M4.3125 0C1.93456 0 0 1.93456 0 4.3125C0 6.69044 1.93456 8.625 4.3125 8.625C6.69044 8.625 8.625 6.69044 8.625 4.3125C8.625 1.93456 6.69044 0 4.3125 0ZM4.3125 7.375C2.62384 7.375 1.25 6.00116 1.25 4.3125C1.25 2.62384 2.62384 1.25 4.3125 1.25C6.00116 1.25 7.375 2.62384 7.375 4.3125C7.375 6.00116 6.00116 7.375 4.3125 7.375Z" transform="translate(3.6875 3.6875)" fill="#333333"/>
<path d="M0.625 1.25C0.970178 1.25 1.25 0.970178 1.25 0.625C1.25 0.279822 0.970178 0 0.625 0C0.279822 0 0 0.279822 0 0.625C0 0.970178 0.279822 1.25 0.625 1.25Z" transform="translate(11.75 3)" fill="#333333"/>
</svg>
