<svg width="236" height="72" viewBox="0 0 236 72" fill="none" xmlns="http://www.w3.org/2000/svg">
<path d="M53.0056 6.00838C53.0056 6.00838 54.1786 4.24021 51.7815 2.26996C49.2315 0.451264 43.8254 -0.761198 39.9493 0.552303C39.9493 0.552303 24.394 6.66513 10.2668 35.6127C10.5218 34.4507 10.8788 33.2383 11.3888 32.0258C11.3888 32.0258 16.5399 14.0915 18.4269 10.5551C18.4269 10.5551 19.294 8.13019 17.3049 6.96825C15.3669 5.85682 13.3268 3.73502 7.56375 3.73502C7.56375 3.73502 10.8788 6.66513 6.23772 22.124C6.23772 22.124 2.15765 37.3808 0.168615 41.0182C0.168615 41.0182 -0.749401 42.1297 1.69864 45.6155C4.35069 49.0508 6.49273 49.0508 7.41074 49.0508C7.41074 49.1013 25.9241 6.51357 53.0056 6.00838ZM3.78968 34.6528C5.62571 30.005 9.60378 13.1316 9.60378 13.1316C10.1138 20.5579 2.00465 39.0985 3.78968 34.6528ZM15.6219 28.1358C15.6219 28.1358 24.7511 13.3337 31.4832 8.02915C38.1133 2.77515 38.6233 3.53294 38.6233 3.53294C38.6233 3.53294 30.2081 8.98902 26.1791 14.142C23.884 17.1226 15.6219 28.1358 15.6219 28.1358Z" fill="white"/>
<path d="M31.3497 31.6756C31.8087 33.3427 33.1347 35.515 36.9088 36.4749C36.9088 36.4749 44.2019 17.2776 55.2181 10.6596C55.2181 10.6596 60.6242 7.32529 62.3072 9.09347C62.3072 9.09347 62.2052 7.881 61.4912 6.97166C60.7772 6.01179 58.6351 3.9405 55.3201 5.70868C52.056 7.47685 45.2729 14.5495 39.0508 26.8257C39.7138 24.6029 40.6828 22.0769 41.7538 18.8942C41.7538 18.8942 43.2839 14.7516 41.4478 13.3371C41.4478 13.3371 38.7448 10.8616 35.5317 10.8616C35.5317 10.8616 37.1128 13.9938 33.7467 22.178L31.6557 28.2403C29.6666 30.6147 26.9636 33.5448 24.9746 34.6057C25.4846 32.4334 26.1986 29.0991 27.8306 24.8555L34.5627 7.47685C34.5627 7.47685 35.8377 5.35504 34.5627 3.83946C33.2877 2.3744 27.2696 3.85431e-07 27.2696 3.85431e-07C27.2696 3.85431e-07 28.8506 2.98064 23.1895 18.2375C22.5775 19.9046 21.9145 21.7233 21.2515 23.542C17.5284 29.1496 8.24626 38.6978 6.20622 33.4943C5.84922 32.4839 5.69621 31.3725 5.79821 29.9074C5.79821 28.6444 5.84921 27.5835 6.15522 26.5226C6.51223 26.7247 6.86923 26.8762 7.48124 27.0783C7.48124 27.0783 13.8054 28.5434 19.7215 20.6624C19.7215 20.6624 23.6485 14.8527 16.8654 12.0741C15.7434 11.5184 14.6214 11.2658 14.6214 11.2658C1.87115 12.2762 -0.321894 23.3904 0.035112 30.16C0.341117 36.9296 8.29726 36.9296 8.29726 36.9296C10.8473 36.9296 14.7234 34.8583 18.6504 30.6652C18.4464 31.2209 18.2934 31.7261 18.1914 32.1302C18.1914 32.1302 17.2734 34.7573 20.2825 36.2728C23.2405 37.7379 24.8726 38.142 24.8726 38.142C24.8726 38.142 28.3406 34.9088 31.3497 31.6756ZM57.5131 5.65816C58.1251 5.55712 58.4311 6.06231 58.4311 6.06231C58.4311 6.06231 55.0141 6.16335 49.659 11.9225C49.659 11.9731 54.4021 5.91075 57.5131 5.65816ZM35.2767 20.4603C35.8377 19.4499 36.8578 16.0146 36.8578 16.0146C36.8578 16.0146 37.1128 17.5807 35.9397 20.4603C34.6647 23.2389 34.4097 23.6935 34.4097 23.6935C34.4097 23.6935 35.0727 21.2686 35.2767 20.4603ZM32.5227 10.1039L27.3206 23.6935C27.3206 23.6935 29.3606 15.6105 32.5227 10.1039ZM8.65427 23.8956C8.65427 23.8956 11.7143 23.0368 13.9074 20.3593C16.2024 17.7323 13.9584 22.9863 8.65427 23.8956ZM15.0294 16.8734C15.5394 18.5911 10.6943 23.2894 6.97124 23.8956C8.75627 20.2077 12.1223 18.0859 15.0294 16.8734ZM1.87115 21.7233C4.21719 14.0444 11.8163 12.5288 11.8163 12.5288C11.8163 12.5288 8.19526 13.8423 5.59421 16.3682C3.29917 18.5911 1.82014 21.9759 1.87115 21.7233Z" transform="translate(20.2788 10.9593)" fill="white"/>
<path d="M19.7725 12.5288C19.1094 11.6194 22.1695 11.0132 26.1986 10.609C25.5866 12.7309 24.7196 15.2063 23.5465 18.1869C22.9345 19.9046 22.2205 21.7738 21.5575 23.643C18.0384 29.2001 8.34826 39.3545 6.20622 33.9995C5.84922 32.9891 5.69621 31.8777 5.79821 30.4126C5.79821 29.1496 5.84921 28.0887 6.15522 27.0278C6.51223 27.2299 6.86924 27.3814 7.48125 27.5835C7.48125 27.5835 13.8054 29.0486 19.7215 21.1676C19.7215 21.1676 23.6485 15.3579 16.8654 12.5793C15.7434 12.0236 14.6214 11.771 14.6214 11.771C1.87115 12.7814 -0.321895 23.8956 0.0351109 30.6652C0.341116 37.4348 8.29726 37.4348 8.29726 37.4348C10.8983 37.4348 14.8254 35.313 18.8034 31.0188C18.6504 31.3725 18.5484 31.7261 18.4464 31.9787C18.4464 31.9787 17.5284 34.6562 20.4865 36.1718C23.4955 37.5863 25.1276 38.041 25.1276 38.041C25.1276 38.041 31.9617 31.6756 34.4097 27.7351C34.4097 27.7351 36.1437 24.5018 34.3587 24.4513C34.3587 24.4513 28.9016 32.3323 25.4336 34.4541C25.7906 32.2313 26.5556 28.9981 28.1876 24.7544L33.9507 9.95229C39.2038 9.54814 43.9979 9.4471 43.9979 9.4471C43.9979 9.4471 45.3239 9.4471 45.9359 7.98204C46.4459 7.27477 45.2729 6.46646 45.2729 7.07269C45.3239 7.57789 40.4278 7.57789 34.7667 7.62841L34.8687 7.42633C34.8687 7.42633 36.0927 5.30452 34.8687 3.88998C33.6447 2.3744 27.7286 1.92716e-07 27.7286 1.92716e-07C27.7286 1.92716e-07 28.5446 1.46506 27.0146 7.62841C23.1385 7.67893 19.9255 7.83048 18.8544 8.18412C16.4574 9.04295 16.8144 10.508 16.8144 10.508C16.8654 13.1855 19.4155 12.8824 19.7725 12.5288ZM8.80726 24.4513C8.80726 24.4513 11.8673 23.5925 14.0604 20.915C16.3554 18.288 14.0604 23.542 8.80726 24.4513ZM15.1824 17.4291C15.6924 19.1468 10.8473 23.8451 7.12424 24.4513C8.90927 20.7634 12.2243 18.6416 15.1824 17.4291ZM2.02415 22.279C4.37019 14.6001 11.9183 13.0845 11.9183 13.0845C11.9183 13.0845 8.29726 14.398 5.69621 16.924C3.45217 19.1468 1.97315 22.5316 2.02415 22.279ZM31.8597 11.6699C31.8597 11.6699 27.6266 23.6935 27.1676 25.3607C26.5556 27.1288 30.1256 13.4886 31.8597 11.6699Z" transform="translate(66.6387 10.4036)" fill="white"/>
<path d="M6.44782 15.7421C5.01979 13.3172 14.047 10.286 24.8081 8.41683C24.5021 9.32618 24.1961 10.5386 23.5331 11.8016C21.6971 17.1567 14.251 36.1014 13.3329 39.082C13.3329 39.082 12.2109 41.8606 15.577 43.5782C18.739 45.0938 20.3711 45.599 20.3711 45.599C20.3711 45.599 20.1671 40.7492 23.7371 31.4031L30.8773 12.6604C30.8773 12.6604 32.4073 10.5386 30.8773 8.97254C30.5712 8.41683 30.2142 8.16424 29.6022 7.65904C43.1685 5.78983 58.0097 5.94139 59.1828 11.4985C59.1828 11.4985 58.9787 12.6099 61.3758 10.3366C63.7728 7.65904 63.6198 3.66802 59.6418 2.5566C45.5655 -3.10156 9.04886 1.59673 1.50073 7.30541C0.276709 8.01268 -0.896311 10.2355 0.990722 12.8625C3.43877 15.9442 5.5298 16.0452 6.44782 15.7421ZM15.577 36.1519L23.8391 14.6307C23.8391 14.6307 18.79 33.0197 15.577 36.1519ZM59.3358 9.07358C59.2847 9.02306 59.0297 8.71995 57.0917 7.50749C54.2357 5.94139 47.0445 5.63827 47.0445 5.63827C58.2137 4.931 59.2847 8.77047 59.3358 9.07358ZM5.17279 6.64866C8.58985 5.48672 10.6299 4.88048 10.6299 4.88048C10.6299 4.88048 2.77576 7.50749 2.06174 10.1345C2.06174 10.185 1.80673 7.86112 5.17279 6.64866Z" transform="translate(115.562 3.24971)" fill="white"/>
<path d="M64.7711 5.6418C64.7711 5.6418 70.1772 2.30753 71.8603 4.07571C71.8603 4.07571 71.7583 2.86325 71.0443 1.9539C70.3302 0.994034 68.1882 -1.07726 64.8732 0.690918C61.6091 2.45909 54.826 9.53179 48.6039 21.808C49.2669 19.5851 50.2359 17.0592 51.3069 13.8764C51.3069 13.8764 52.8369 9.73386 51.0009 8.31932C51.0009 8.31932 48.2979 5.84388 45.0848 5.84388C45.0848 5.84388 46.6658 8.97608 43.2998 17.1602L41.6677 21.808C39.6787 24.1824 37.1797 26.8599 35.2416 27.9713C35.6496 25.5969 36.5166 22.4647 38.4037 19.181C38.4037 19.181 39.4237 16.8066 37.4857 15.0384C35.5476 13.2197 32.9466 11.1989 32.8956 12.2093C32.8956 12.2093 32.8956 12.5629 32.8956 13.3713C32.8956 13.3713 21.8284 31.5582 21.8284 28.0218C21.8284 27.9208 21.8284 27.9208 21.8284 27.7692C21.8284 14.6342 36.7206 9.8349 36.7206 9.8349C36.7206 9.8349 35.8026 8.5214 34.3746 7.15738C32.8956 5.8944 30.7025 5.43973 30.7025 5.43973C25.1435 5.43973 18.7683 14.6848 17.2383 21.6059C15.3513 23.8793 12.9542 26.4557 11.0672 27.6177C11.6792 24.6876 12.9032 20.0903 15.3513 13.6744C15.3513 13.6744 15.9633 11.7546 15.3003 10.8958C15.3003 10.8958 12.9542 8.57192 9.58816 7.76361C8.46614 7.40998 7.54814 7.10686 6.93613 6.95531C6.37512 4.27779 4.69209 3.11584 4.13108 3.0148C2.80505 2.76221 1.42803 2.71169 1.37703 5.43973C1.37703 7.05634 3.16205 8.11725 4.99808 8.97608C4.33507 14.129 0 20.1913 0 20.1913L0.051004 23.6267C4.99809 17.6149 6.78312 13.0681 7.08912 9.93594C8.05814 10.3401 8.72116 10.7443 8.72116 11.2494C8.46615 12.1588 8.05815 13.4218 7.49714 14.8868L3.21305 25.9C3.21305 25.9 3.92706 29.5374 10.3532 31.4571C10.3532 31.4571 13.8212 28.426 16.8813 25.1928C17.3403 32.2655 24.3274 31.4571 24.3274 31.4571C24.3274 31.4571 27.1325 31.7097 31.9776 18.4232C31.3656 20.7471 30.4475 23.6267 28.9685 26.9609C28.9685 26.9609 28.5605 28.6786 30.9065 30.0931L34.8846 31.5582C34.8846 31.5582 37.8427 28.9312 40.6987 25.9505C41.0047 27.6682 42.1267 30.2952 46.4108 31.4066C46.4618 31.4571 53.755 12.2093 64.7711 5.6418ZM2.90706 5.03557C3.11106 3.21688 4.38608 4.68194 4.38608 4.68194C4.69209 5.23765 4.89608 5.79336 4.99808 6.39959C3.92706 5.99544 2.95806 5.74284 2.90706 5.03557ZM10.0472 24.536L13.7192 13.8764C13.6172 16.756 10.0472 24.536 10.0472 24.536ZM24.9904 10.7948C24.9904 10.7948 20.9614 15.0889 20.4514 17.2107C20.4004 17.4128 20.3494 17.5643 20.2984 17.6654L20.2474 17.7159C20.1964 17.5643 21.1144 13.4218 24.9904 10.7948ZM45.5438 15.4425C44.2688 18.2211 44.0138 18.6758 44.0138 18.6758C44.0138 18.6758 44.6258 16.2508 44.8808 15.4425C45.4418 14.4322 46.4618 10.9968 46.4618 10.9968C46.4618 10.9968 46.7168 12.6135 45.5438 15.4425ZM67.1172 0.6404C67.7292 0.539361 68.0352 1.04455 68.0352 1.04455C68.0352 1.04455 64.6181 1.14559 59.2631 6.90479C59.2631 6.95531 64.0061 0.892996 67.1172 0.6404Z" transform="translate(144.093 15.977)" fill="white"/>
<path d="M34.4607 24.7039C34.4607 24.7039 28.6466 32.6354 24.9745 34.6057C25.4846 32.4334 26.1986 29.0991 27.8306 24.8555L34.5627 7.47685C34.5627 7.47685 35.8377 5.35504 34.5627 3.83946C33.2877 2.37441 27.2696 1.92716e-07 27.2696 1.92716e-07C27.2696 1.92716e-07 28.8506 2.98064 23.1895 18.2375C22.5775 19.9046 21.9145 21.7233 21.2515 23.542C17.5284 29.1496 8.24626 38.6978 6.20622 33.4943C5.84922 32.4839 5.69622 31.3725 5.79822 29.9074C5.79822 28.6444 5.84921 27.5835 6.15522 26.5226C6.51222 26.7247 6.86923 26.8762 7.48124 27.0783C7.48124 27.0783 13.8054 28.5434 19.7215 20.6624C19.7215 20.6624 23.6485 14.8527 16.8654 12.0741C15.7434 11.5184 14.6214 11.2658 14.6214 11.2658C1.87114 12.2762 -0.321897 23.3904 0.0351093 30.16C0.341115 36.9296 8.29726 36.9296 8.29726 36.9296C10.8473 36.9296 14.7234 34.8583 18.6504 30.6652C18.4464 31.2209 18.2934 31.7261 18.1914 32.1302C18.1914 32.1302 17.2734 34.7573 20.2825 36.2728C23.2405 37.7379 24.8726 38.142 24.8726 38.142C24.8726 38.142 31.9617 31.8777 34.5627 28.0382C34.4607 28.0382 36.1947 24.805 34.4607 24.7039ZM32.6247 10.1544L27.4226 23.7441C27.4226 23.7441 29.4626 15.661 32.6247 10.1544ZM8.75627 23.9461C8.75627 23.9461 11.8163 23.0873 14.0094 20.4098C16.3044 17.7828 14.0094 23.0368 8.75627 23.9461ZM15.1314 16.924C15.6414 18.6416 10.7963 23.3399 7.07324 23.9461C8.80727 20.2582 12.1733 18.1364 15.1314 16.924ZM1.97315 21.7738C4.31919 14.0949 11.8673 12.5793 11.8673 12.5793C11.8673 12.5793 8.24625 13.8928 5.64521 16.4188C3.40117 18.6416 1.92215 22.0264 1.97315 21.7738Z" transform="translate(200.108 10.9088)" fill="white"/>
<path d="M133.867 4.43611C133.867 4.43611 81.3361 -2.53555 48.7975 1.0008C23.1951 3.02157 3.76374 6.86103 1.7237 7.92193C1.7237 7.92193 -0.775343 8.93232 0.244675 13.9337C0.754684 15.8535 1.7237 14.8431 2.18271 14.3379C3.71274 13.378 17.738 9.43751 46.7575 7.41674C89.8023 3.8804 135.397 9.43751 136.417 10.3974C137.845 11.3572 143.914 5.95168 133.867 4.43611ZM6.77279 7.87142C4.27375 8.37661 2.23371 9.387 2.23371 9.387C2.23371 9.387 2.74372 7.87142 15.2899 5.95168C18.299 5.39597 20.237 5.39597 21.308 5.39597C21.308 5.39597 18.809 5.95168 17.84 5.95168C18.299 5.95168 12.7909 6.40636 6.77279 7.87142Z" transform="translate(48.7827 56.9414)" fill="white"/>
</svg>
