<svg width="45" height="42" viewBox="0 0 45 42" fill="none" xmlns="http://www.w3.org/2000/svg">
<path d="M44.7577 5.1447C44.7577 5.1447 45.7482 3.6307 43.7241 1.94366C41.5709 0.386397 37.006 -0.651779 33.733 0.472912C33.733 0.472912 20.5982 5.70705 8.66924 30.4935C8.88456 29.4986 9.18602 28.4604 9.61667 27.4222C9.61667 27.4222 13.9662 12.0659 15.5596 9.03787C15.5596 9.03787 16.2917 6.96151 14.6122 5.96659C12.9757 5.01493 11.2531 3.19812 6.3868 3.19812C6.3868 3.19812 9.18602 5.70705 5.26711 18.9438C5.26711 18.9438 1.82191 32.0075 0.142378 35.122C0.142378 35.122 -0.632791 36.0737 1.43433 39.0585C3.6737 42 5.48243 42 6.2576 42C6.2576 42.0432 21.8902 5.57728 44.7577 5.1447ZM3.19999 29.6716C4.75033 25.6919 8.10939 11.244 8.10939 11.244C8.54004 17.6028 1.69272 33.4783 3.19999 29.6716ZM13.1911 24.0914C13.1911 24.0914 20.8997 11.417 26.5843 6.875C32.1827 2.37623 32.6133 3.02509 32.6133 3.02509C32.6133 3.02509 25.5076 7.69689 22.1055 12.1091C20.1676 14.6613 13.1911 24.0914 13.1911 24.0914Z" fill="url(#paint0_linear)"/>
<defs>
<linearGradient id="paint0_linear" x2="1" gradientUnits="userSpaceOnUse" gradientTransform="matrix(18.5 35 -239.621 135.441 123.311 -63.7205)">
<stop stop-color="#FFA361"/>
<stop offset="1" stop-color="#FF7A52"/>
</linearGradient>
</defs>
</svg>
