<svg width="24" height="24" viewBox="0 0 24 24" fill="none" xmlns="http://www.w3.org/2000/svg">
<path d="M22.8283 3.13326L19.6842 0L13.1547 6.51866L15.686 9.13287C15.2618 9.88596 14.3414 11.3285 12.7727 12.8972C11.2039 14.4661 9.75073 15.397 8.99047 15.828L6.42753 13.2977L1.73226e-10 19.687L3.12693 22.8347C4.32219 24.03 6.14089 24.3397 7.65251 23.6056C9.95923 22.4853 13.4405 20.4181 16.9262 16.9324C20.4117 13.4469 22.4789 9.96556 23.5993 7.65884C23.8647 7.11228 23.9937 6.52564 23.9937 5.9428C23.9937 4.91361 23.5914 3.89633 22.8283 3.13326ZM21.914 6.84022C20.8564 9.0177 18.9027 12.3063 15.6013 15.6077C12.2998 18.9092 9.01132 20.8627 6.83394 21.9203C6.04011 22.3058 5.08269 22.1409 4.45387 21.5121L2.64909 19.6953L6.43217 15.9349L8.61556 18.0904L9.19971 17.8303C9.29464 17.788 11.5539 16.7657 14.0976 14.222C16.643 11.6766 17.6441 9.43643 17.6854 9.34226L17.9387 8.76593L15.7843 6.54092L19.6855 2.64609L21.5045 4.45869C22.1347 5.08986 22.2994 6.04681 21.914 6.84022Z" fill="#FF7A52"/>
</svg>
