<svg width="20" height="16" viewBox="0 0 20 16" fill="none" xmlns="http://www.w3.org/2000/svg">
<path d="M17.1235 2.57627L17.1138 2.53846C17.937 2.03827 18.6017 1.21369 18.8973 0.269231C18.1263 0.734115 17.2242 1.08681 16.317 1.26923C15.5895 0.483615 14.6188 0 13.471 0C11.271 0 9.44866 1.80527 9.44866 4.03846C9.44866 4.35623 9.49294 4.66731 9.5625 4.96154V5C6.28366 4.81015 3.31492 3.12 1.36607 0.692308C1.02406 1.28962 0.834821 2.14315 0.834821 2.88462C0.834821 4.03846 1.5108 5.58388 2.58036 6.30769V6.38462C1.94172 6.3585 1.2876 5.91258 0.758929 5.61538C0.758929 5.63304 0.782076 5.65427 0.782076 5.67192C0.782076 7.6315 2.19915 9.32158 4.02232 9.69231C3.7046 9.7775 3.25709 9.84615 2.92188 9.84615C2.66392 9.84615 2.40641 9.77785 2.16295 9.73077C2.67018 11.3373 4.13616 12.3846 5.8817 12.3846V12.4231C4.52302 13.4907 2.8009 14.2308 0.948661 14.2308C0.626913 14.2308 0.227679 14.1923 0 14.1538C1.76227 15.3013 3.85725 16 6.10938 16C13.4396 16 17.4554 9.88461 17.4554 4.53846V4C18.235 3.42919 18.8952 2.65823 19.4286 1.84615C19.4286 1.84615 18.0296 2.51804 17.1235 2.57627ZM15.9375 4.53846C15.9375 5.69277 15.7145 6.90492 15.2924 8.04385C14.8489 9.24081 14.2105 10.3208 13.3951 11.2539C12.1161 12.7172 9.81405 14.4615 6.10938 14.4615C6.00051 14.4615 5.89183 14.4596 5.78315 14.4558C6.14083 14.2455 6.48459 14.0114 6.81169 13.7543L7.39955 13.2924V12.5385V12.3846V10.8462L6.77423 10.8391C6.09048 10.8314 5.54018 10.2675 5.54018 9.57438V8.31646L4.71936 8.12858C4.35614 8.04542 4.09821 7.71838 4.09821 7.34096V6.38462V6.26923L4.07924 5.48504L3.40421 5.02823C3.11271 4.77965 2.84852 4.42462 2.66031 4.04038C4.65208 5.51262 7.01758 6.39362 9.47594 6.53596L11.0804 6.62885V5V4.96154V4.77981L11.0386 4.60308C10.9908 4.40081 10.9665 4.21085 10.9665 4.03846C10.9665 3.376 11.2273 2.75046 11.7008 2.27704C12.1771 1.80077 12.8058 1.53846 13.471 1.53846C14.1435 1.53846 14.7287 1.80212 15.2103 2.32212L15.5975 2.74031L15.6444 2.92377L15.654 2.96158L15.9375 4.07235V4.53846Z" fill="white"/>
</svg>
